<svg width="32" height="32" viewBox="0 0 32 32" fill="none" xmlns="http://www.w3.org/2000/svg">
<path d="M15.5287 31.0869C-4.10768 28.7136 1.54377 5.08037 10.9309 4.78372V11.0134L8.72777 12.2V27.3293C9.30253 28.417 11.9846 30.098 13.3256 29.7025V9.92568L18.2107 12.5956V16.0565L16.1034 17.342V30.098C17.4444 30.2958 20.2031 29.8212 20.8928 29.1092V15.0677L25.6821 17.342V24.3627C29.0347 22.4839 29.0347 11.0134 24.0537 8.14577L22.2338 10.0246L22.3296 7.3547L20.1265 6.56363L22.3296 5.77256L22.617 2.70715L24.0537 5.17925L26.8316 4.78372L24.9158 7.05805C32.6746 12.7933 31.2378 30.6913 15.5287 31.0869Z" fill="#FCA311" stroke="#FCA311"/>
</svg>
