<svg width="190" height="190" viewBox="0 0 190 190" fill="none" xmlns="http://www.w3.org/2000/svg">
<path d="M92.0321 182C-31.6152 167.449 3.97107 22.5505 63.0804 20.7317V58.9268L49.2077 66.2021V158.962C52.8269 165.631 69.7153 175.937 78.1594 173.512V52.2578L108.92 68.6272V89.8467L95.6509 97.7282V175.937C104.095 177.15 121.466 174.24 125.809 169.875V83.784L155.967 97.7282V140.774C177.077 129.254 177.077 58.9268 145.713 41.3449L134.253 52.8641L134.856 36.4948L120.984 31.6446L134.856 26.7944L136.666 8L145.713 23.1568L163.205 20.7317L151.141 34.676C199.997 69.8397 190.95 179.575 92.0321 182Z" fill="#FCA311" stroke="#FCA311"/>
</svg>
