<svg width="190" height="190" viewBox="0 0 190 190" fill="none" xmlns="http://www.w3.org/2000/svg">
<rect width="190" height="190" fill="white"/>
<path d="M92.8311 150.5C-9.66882 138.5 19.8312 19 68.831 17.5V49L57.3309 55V131.5C60.3312 137 74.3312 145.5 81.3311 143.5V43.5L106.831 57V74.5L95.831 81V145.5C102.831 146.5 117.231 144.1 120.831 140.5V69.5L145.831 81V116.5C163.331 107 163.331 49 137.331 34.5L127.831 44L128.331 30.5L116.831 26.5L128.331 22.5L129.831 7L137.331 19.5L151.831 17.5L141.831 29C182.331 58 174.831 148.5 92.8311 150.5Z" fill="#FCA311" stroke="#FCA311"/>
<path d="M28.4188 187.76C26.1254 187.76 23.9921 187.227 22.0188 186.16C20.0454 185.067 18.1388 183.573 16.2988 181.68C16.2454 181.627 16.1788 181.6 16.0988 181.6C15.8588 181.6 15.5921 181.747 15.2988 182.04L14.7788 181.48L20.3388 176.24L20.8588 176.8C20.6988 176.933 20.5521 177.12 20.4188 177.36C20.2854 177.6 20.2588 177.773 20.3388 177.88C22.8188 181.027 25.5254 182.6 28.4588 182.6C29.4721 182.6 30.3788 182.4 31.1788 182C32.0054 181.6 32.6454 181.093 33.0988 180.48C33.5521 179.84 33.7788 179.187 33.7788 178.52C33.7788 176.947 32.4054 175.653 29.6588 174.64L24.7388 172.8C22.7654 172.08 21.2188 171.093 20.0987 169.84C19.0054 168.587 18.4588 167.08 18.4588 165.32C18.4588 163.587 18.8588 162.08 19.6588 160.8C20.4854 159.493 21.6454 158.493 23.1388 157.8C24.6321 157.107 26.3654 156.76 28.3388 156.76C30.2054 156.76 31.7654 157.053 33.0188 157.64C34.2988 158.2 35.6588 159.067 37.0988 160.24C37.1254 160.267 37.1788 160.28 37.2588 160.28C37.3921 160.28 37.5388 160.24 37.6988 160.16C37.8854 160.053 38.0321 159.947 38.1388 159.84L38.6588 160.36L33.6988 165.24L33.1788 164.68C33.3121 164.547 33.4054 164.4 33.4588 164.24C33.5388 164.053 33.5254 163.92 33.4188 163.84C31.6854 162.453 29.9654 161.76 28.2588 161.76C26.8988 161.76 25.8188 162.08 25.0188 162.72C24.2188 163.333 23.8188 164.12 23.8188 165.08C23.8188 165.933 24.0321 166.587 24.4588 167.04C24.9121 167.493 25.5921 167.88 26.4988 168.2L31.3388 169.96C33.0188 170.573 34.4188 171.227 35.5388 171.92C36.6588 172.587 37.5521 173.48 38.2188 174.6C38.8854 175.693 39.2188 177.067 39.2188 178.72C39.2188 180.32 38.7921 181.813 37.9388 183.2C37.1121 184.56 35.8721 185.667 34.2188 186.52C32.5921 187.347 30.6588 187.76 28.4188 187.76ZM55.5022 157C57.6089 157 59.4489 157.387 61.0222 158.16C62.5955 158.933 63.7955 160.013 64.6222 161.4C65.4755 162.76 65.9022 164.32 65.9022 166.08C65.9022 168.027 65.4355 169.68 64.5022 171.04C63.5689 172.373 62.3422 173.387 60.8222 174.08C59.3022 174.747 57.6755 175.08 55.9422 175.08H48.9822V185.8C48.9822 185.933 49.0889 186.04 49.3022 186.12C49.5155 186.2 49.7155 186.24 49.9022 186.24V187H42.7422V186.24C42.9289 186.24 43.1289 186.2 43.3422 186.12C43.5555 186.04 43.6622 185.933 43.6622 185.8V158.2C43.6622 158.067 43.5555 157.96 43.3422 157.88C43.1555 157.8 42.9689 157.76 42.7822 157.76V157H55.5022ZM56.2622 170C57.1955 170 58.0222 169.8 58.7422 169.4C59.4622 168.973 60.0089 168.44 60.3822 167.8C60.7555 167.16 60.9422 166.493 60.9422 165.8C60.9422 164.76 60.5022 163.84 59.6222 163.04C58.7422 162.24 57.6355 161.84 56.3022 161.84H48.9822V170H56.2622ZM98.82 185.88C98.9 186.12 99.22 186.24 99.78 186.24V187H91.66V186.24C92.0067 186.24 92.2467 186.16 92.38 186C92.5133 185.84 92.54 185.68 92.46 185.52L90.26 179.88H77.22L75.02 185.52L74.98 185.64C74.98 185.8 75.0467 185.947 75.18 186.08C75.34 186.187 75.54 186.24 75.78 186.24V187H67.9V186.24C68.4333 186.24 68.7533 186.12 68.86 185.88L79.98 158.84C80.06 158.68 80.1 158.533 80.1 158.4C80.1 158.16 79.9933 158 79.78 157.92C79.5667 157.813 79.34 157.76 79.1 157.76V157H88.42V157.76C88.18 157.76 87.9533 157.813 87.74 157.92C87.5267 158 87.42 158.16 87.42 158.4C87.42 158.533 87.46 158.68 87.54 158.84L98.82 185.88ZM83.74 163.24L79.02 175.28H88.46L83.74 163.24ZM127.875 181.12V187.84H127.115C127.115 187.653 127.075 187.453 126.995 187.24C126.915 187.053 126.809 186.96 126.675 186.96H102.515V185.6L118.755 161.52H103.715C103.582 161.52 103.475 161.613 103.395 161.8C103.315 161.987 103.275 162.16 103.275 162.32H102.515V156.16H103.275C103.275 156.32 103.315 156.493 103.395 156.68C103.475 156.867 103.582 156.96 103.715 156.96H127.195V158.28L111.195 182H126.675C126.809 182 126.915 181.907 126.995 181.72C127.075 181.507 127.115 181.307 127.115 181.12H127.875ZM133.155 158.2C133.155 158.067 133.049 157.96 132.835 157.88C132.622 157.8 132.409 157.76 132.195 157.76V157H139.555V157.76C139.342 157.76 139.129 157.8 138.915 157.88C138.702 157.96 138.595 158.067 138.595 158.2V185.8C138.595 185.933 138.702 186.04 138.915 186.12C139.129 186.2 139.342 186.24 139.555 186.24V187H132.195V186.24C132.409 186.24 132.622 186.2 132.835 186.12C133.049 186.04 133.155 185.933 133.155 185.8V158.2ZM158.763 187.64C155.669 187.64 152.896 186.933 150.443 185.52C148.016 184.08 146.123 182.187 144.763 179.84C143.429 177.467 142.763 174.96 142.763 172.32C142.763 169.653 143.403 167.093 144.683 164.64C145.963 162.16 147.816 160.147 150.243 158.6C152.669 157.053 155.509 156.28 158.763 156.28C161.936 156.28 164.723 157.013 167.123 158.48C169.523 159.947 171.363 161.907 172.643 164.36C173.923 166.787 174.563 169.44 174.563 172.32C174.563 174.88 173.923 177.347 172.643 179.72C171.389 182.067 169.563 183.973 167.163 185.44C164.763 186.907 161.963 187.64 158.763 187.64ZM158.803 182.36C160.803 182.36 162.589 181.947 164.162 181.12C165.762 180.267 167.003 179.08 167.883 177.56C168.789 176.013 169.243 174.267 169.243 172.32C169.243 170.267 168.816 168.427 167.963 166.8C167.109 165.173 165.883 163.893 164.283 162.96C162.683 162 160.789 161.52 158.603 161.52C156.603 161.52 154.816 162 153.243 162.96C151.696 163.893 150.483 165.187 149.603 166.84C148.723 168.493 148.283 170.32 148.283 172.32C148.283 174.4 148.789 176.2 149.803 177.72C150.843 179.24 152.163 180.4 153.763 181.2C155.389 181.973 157.069 182.36 158.803 182.36Z" fill="#14213D"/>
</svg>
