<svg width="599" height="540" viewBox="0 0 599 540" fill="none" xmlns="http://www.w3.org/2000/svg">
<path fill-rule="evenodd" clip-rule="evenodd" d="M529 0H0V540H529H537H540.499L553.914 532.788C555.273 531.966 556.769 531.079 558.366 530.134C572.529 521.743 594.547 508.698 597.992 494.925C601.187 482.15 588.403 470.002 575.18 457.436C572.539 454.927 569.881 452.401 567.329 449.85C551.997 435.426 540.499 420.1 538.582 404.775C536.666 390.351 544.332 375.025 553.914 359.699C557.76 353.909 561.916 347.974 566.132 341.951C572.419 332.971 578.841 323.798 584.577 314.624C594.159 300.2 601.825 284.875 597.992 270.451C595.612 260.935 588.799 251.419 582.141 242.119C578.075 236.441 574.068 230.844 571.162 225.376C563.496 210.05 563.496 194.725 569.245 180.3C571.214 175.054 573.856 169.807 576.479 164.597C581.52 154.587 586.493 144.711 586.493 135.225C586.493 128.061 583.981 120.897 581.5 113.825C578.675 105.768 575.891 97.8315 576.911 90.1502C577.705 83.8034 580.799 77.6111 583.881 71.4454C588.24 62.723 592.572 54.0538 590.326 45.0751C586.89 31.3366 568.054 18.3226 555.906 9.92965C554.502 8.96011 553.188 8.05222 551.997 7.21202L540.499 0H537H529Z" fill="url(#paint0_linear_238_2)"/>
<defs>
<linearGradient id="paint0_linear_238_2" x1="348.5" y1="575.5" x2="291" y2="170" gradientUnits="userSpaceOnUse">
<stop offset="0.0968749" stop-color="#14213D"/>
<stop offset="0.544792" stop-color="#FCA311"/>
</linearGradient>
</defs>
</svg>
